<svg enable-background="new 0 0 64 64" viewBox="0 0 64 64" xmlns="http://www.w3.org/2000/svg"><path d="m44.828 18.558-.001-.003c-.221-.875-.645-1.627-1.391-2.151-.302-.212-.353-.409-.263-.765.584-2.319.657-4.648-.136-6.93-1.385-3.983-4.257-6.429-8.182-7.739-.531-.178-1.072-.328-1.622-.443-2.211-.463-3.74.282-3.74.282.908.56 2.099.73 2.457 1.982-2.393-1.092-4.815-1.324-7.451-.448 1.361.157 2.604.216 3.745 1.169-1.716-.03-3.234.225-4.644 1.018.297 0 .605-.047.887.014.244.053.46.231.687.355-.005.062-.005.069-.01.131-.397.145-.823.232-1.193.426-1.845.961-2.843 2.577-3.344 4.522-.49 1.908-.294 3.806.283 5.669.096.308.073.479-.217.668-.828.54-1.308 1.333-1.53 2.289 0 .001 0 .002-.001.003-.068.286-.118.576-.118.87v.107c0 .332.049.662.149.978.23.734.521 1.443 1.107 1.978.552.504 1.191.911 1.769 1.388.249.206.512.442.651.723 1.821 3.678 4.817 5.789 8.785 6.56 1.144.222 2.242-.207 3.284-.648 2.939-1.244 5.275-3.151 6.579-6.154.057-.132.162-.279.285-.34 1.526-.766 2.638-1.866 3.154-3.46.102-.315.149-.645.149-.976v-.051c0-.346-.043-.689-.128-1.024zm-17.599-8.521-1.296 2.497s1.797.085 4.179-2.485c.475-.512.973-1.13 1.484-1.874l-.285 1.879v.001l-.236 1.555s1.02.053 2.478-1.546c.56-.614 1.185-1.471 1.841-2.669l-.535 2.674-.267 1.336s1.129-.489 2.256-1.327c3.056 1.234 3.936 3.807 4.15 5.681.04.347.126.685.254 1.004h-1.479c-.566-1.292-1.857-2.198-3.356-2.198-1.355 0-2.54.741-3.174 1.838-.35-.235-.77-.372-1.222-.372s-.873.137-1.222.372c-.634-1.097-1.818-1.838-3.174-1.838-1.499 0-2.79.906-3.356 2.198h-1.559c.164-.352.273-.729.321-1.117.216-1.766 1.048-5.621 4.198-5.609zm11.385 8.187c0 1.212-.986 2.198-2.198 2.198s-2.198-.986-2.198-2.198.986-2.198 2.198-2.198 2.198.986 2.198 2.198zm-8.792 0c0 1.212-.985 2.198-2.198 2.198-1.212 0-2.198-.986-2.198-2.198s.986-2.198 2.198-2.198c1.213 0 2.198.986 2.198 2.198zm12.92 1.782c-.239.929-.864 1.59-1.694 1.959-.948.423-1.408 1.131-1.852 2.03-1.386 2.811-3.789 4.388-6.776 5.103-.469.112-1.04.019-1.514-.134-3.036-.976-5.343-2.779-6.532-5.847-.123-.319-.486-.604-.807-.777-.792-.43-1.555-.875-2.041-1.667-.518-.845-.442-1.808.199-2.45h2.236c0 2.02 1.643 3.663 3.663 3.663s3.663-1.643 3.663-3.663c0-.404.329-.732.733-.732s.732.328.732.732c0 2.02 1.643 3.663 3.663 3.663s3.663-1.643 3.663-3.663h2.237l.002.002c.488.573.586 1.153.425 1.781z" fill="#3d4652"/><path d="m43.211 41.88h-22.422c-1.943 0-3.483 1.638-3.363 3.577l1.052 15.006c.11 1.776 1.583 3.161 3.363 3.161h20.318c1.78 0 3.253-1.385 3.363-3.161l1.052-15.006c.12-1.938-1.42-3.577-3.363-3.577zm-11.211 13.52c-1.462 0-2.647-1.185-2.647-2.647s1.185-2.647 2.647-2.647 2.647 1.185 2.647 2.647-1.185 2.647-2.647 2.647z" fill="#2e7cb9"/><path d="m45.14 31.801h-7.156c-.47 2.884-2.966 5.088-5.983 5.088s-5.513-2.204-5.983-5.088h-7.158c-4.469 0-8.092 3.623-8.092 8.092v14.101h4.8.451l-.589-8.397c-.092-1.489.436-2.95 1.446-4.025s2.437-1.691 3.912-1.691h22.422c1.476 0 2.902.617 3.913 1.692s1.538 2.536 1.446 4.009l-.59 8.413h.452 4.8v-14.102c.002-4.469-3.622-8.092-8.091-8.092z" fill="#3d4652"/></svg>